<svg xmlns="http://www.w3.org/2000/svg" xmlns:xlink="http://www.w3.org/1999/xlink" width="84" height="84" viewBox="0 0 84 84"><defs><filter id="Ellipse_296" width="84" height="84" x="0" y="0" filterUnits="userSpaceOnUse"><feOffset dy="3" input="SourceAlpha"/><feGaussianBlur result="blur" stdDeviation="5"/><feFlood flood-opacity=".502"/><feComposite in2="blur" operator="in"/><feComposite in="SourceGraphic"/></filter></defs><g id="chat" transform="translate(15 12)"><g filter="url(#Ellipse_296)" transform="matrix(1, 0, 0, 1, -15, -12)"><circle id="Ellipse_296-2" cx="27" cy="27" r="27" fill="#cb2515" data-name="Ellipse 296" transform="translate(15 12)"/></g><g id="Union_1" fill="none" data-name="Union 1"><path stroke="none" d="M24.725,28.46a25.246,25.246,0,0,1-2.9-2.587,17.945,17.945,0,0,1-6.335,1.019C6.8,26.74-.128,20.6,0,13.173S7.273-.149,15.954,0,31.566,6.3,31.437,13.722a12.092,12.092,0,0,1-2.912,7.586v8.809A8.253,8.253,0,0,1,24.725,28.46Z" transform="translate(11.48 11.827)"/><path fill="#fff" stroke="none" d="M 26.52424240112305 27.25603675842285 L 26.52424240112305 21.30795669555664 L 26.52424240112305 20.5811653137207 L 26.99084281921387 20.02393531799316 C 28.55086326599121 18.16093635559082 29.39669418334961 15.96952533721924 29.43689346313477 13.68690586090088 C 29.54715347290039 7.376365661621094 23.48322296142578 2.134795665740967 15.91931343078613 2.002575874328613 C 15.82136344909668 2.000865697860718 15.72428321838379 2.000015735626221 15.6267728805542 2.000015735626221 C 11.96682357788086 2.000015735626221 8.530483245849609 3.195935726165771 5.950773239135742 5.367475986480713 C 3.45577335357666 7.467705726623535 2.05336332321167 10.2521858215332 2.001873254776001 13.20811557769775 C 1.891613245010376 19.51865577697754 7.955743312835693 24.76025581359863 15.5199031829834 24.89250564575195 C 15.61775302886963 24.89421653747559 15.71536350250244 24.89506530761719 15.81276321411133 24.89506530761719 C 17.66462326049805 24.89506530761719 19.46003341674805 24.59012603759766 21.14911270141602 23.98870658874512 L 22.34907341003418 23.56144523620605 L 23.24367332458496 24.46817588806152 C 24.25911331176758 25.49737548828125 25.17708396911621 26.31770515441895 25.89725303649902 26.83968544006348 C 26.1141414642334 26.99666023254395 26.32376670837402 27.13466644287109 26.52424240112305 27.25603675842285 M 28.52424240112305 30.11736488342285 C 28.52424240112305 30.11736488342285 26.83889389038086 29.99007606506348 24.72463417053223 28.4598560333252 C 23.75072288513184 27.75396537780762 22.68548393249512 26.75007629394531 21.81997299194336 25.87283515930176 C 19.96876907348633 26.53197288513184 17.93990135192871 26.89506530761719 15.8127613067627 26.89506721496582 C 15.70370864868164 26.89506721496582 15.59442234039307 26.89411354064941 15.48486328125 26.89219665527344 C 6.803763389587402 26.74041557312012 -0.1275567561388016 20.59827613830566 0.002183239674195647 13.17317581176758 C 0.1298595070838928 5.84198522567749 7.094615936279297 2.041198786173481e-05 15.62677669525146 2.041198786173481e-05 C 15.73595428466797 2.041198786173481e-05 15.84464359283447 0.0009681329247541726 15.95432281494141 0.00288576353341341 C 24.63373374938965 0.1546057611703873 31.56632232666016 6.296805858612061 31.43658256530762 13.72184562683105 C 31.38665390014648 16.55742645263672 30.31458282470703 19.16989517211914 28.52424240112305 21.30795669555664 L 28.52424240112305 30.11736488342285 Z" transform="translate(11.48 11.827)"/></g></g></svg>