<svg id="Group_358" data-name="Group 358" xmlns="http://www.w3.org/2000/svg" width="58" height="58" viewBox="0 0 58 58">
  <circle id="Ellipse_279" data-name="Ellipse 279" cx="29" cy="29" r="29" fill="#131313" opacity="0.6"/>
  <g id="Group_234" data-name="Group 234" transform="translate(7 23)">
    <line id="Line_172" data-name="Line 172" x2="34.599" transform="translate(3.917 5.716)" fill="none" stroke="#fff" stroke-width="2"/>
    <path id="Polygon_1" data-name="Polygon 1" d="M5.2,1.067a1,1,0,0,1,1.6,0l4,5.333A1,1,0,0,1,10,8H2a1,1,0,0,1-.8-1.6Z" transform="translate(45) rotate(90)" fill="#fff"/>
    <path id="Polygon_2" data-name="Polygon 2" d="M5.2,1.067a1,1,0,0,1,1.6,0l4,5.333A1,1,0,0,1,10,8H2a1,1,0,0,1-.8-1.6Z" transform="translate(0 12) rotate(-90)" fill="#fff"/>
  </g>
</svg>
