<svg id="Group" xmlns="http://www.w3.org/2000/svg" width="17.296" height="15.678" viewBox="0 0 17.296 15.678">
  <path id="Compound_Path" data-name="Compound Path" d="M30.831,21.428h0a5.085,5.085,0,0,0-4.975-4.4,6.713,6.713,0,0,0-3.547,1.143A6.689,6.689,0,0,0,18.738,17a5.028,5.028,0,0,0-4.951,4.428c-.714,3.69,1.476,8.57,7.975,11.141a1.476,1.476,0,0,0,1.119,0C29.355,29.95,31.521,25.07,30.831,21.428Zm-8.522,9.331c-5.356-2.19-7.213-6.07-6.665-8.974a3.168,3.168,0,0,1,3.095-2.88,5.2,5.2,0,0,1,3,1.166.952.952,0,0,0,1.143,0A5.2,5.2,0,0,1,25.855,18.9a3.2,3.2,0,0,1,3.095,2.857C29.5,24.665,27.664,28.521,22.308,30.759Z" transform="translate(-13.657 -17)" fill="#131313"/>
</svg>
