<svg xmlns="http://www.w3.org/2000/svg" width="382.881" height="115.263" viewBox="0 0 382.881 115.263"><g id="Group_431" data-name="Group 431" transform="translate(-115.006 -149.269)"><g id="Group_423" data-name="Group 423" transform="translate(115.006 240.756)"><path id="Path_1151" fill="#131313" d="M118.148,265.09V274.9c0,.846.333,1.3.976,1.3a3,3,0,0,0,1.571-.476v1.4a3.4,3.4,0,0,1-1.952.5c-1.048,0-2.072-.609-2.072-2.512V265.09h-1.666v-1.375h1.666v-2.38h1.476v2.38h2.595v1.375Z" data-name="Path 1151" transform="translate(-115.006 -258.717)"/><path id="Path_1152" fill="#131313" d="M136.954,269v8.013h-1.475V269c0-3.094-1.524-4.416-3.524-4.416-2.333,0-4.07,2.3-4.38,4.178v8.251H126.1V258.5h1.475v8.225a5.063,5.063,0,0,1,4.619-3.6C134.621,263.129,136.954,264.768,136.954,269Z" data-name="Path 1152" transform="translate(-116.784 -258.263)"/><path id="Path_1153" fill="#131313" d="M153.93,270.989a5.208,5.208,0,0,1-.048.661H143.5c.191,3.385,2.572,4.972,4.642,4.972a4.289,4.289,0,0,0,3.619-1.719l.9.9a5.285,5.285,0,0,1-4.524,2.275c-2.784,0-6.142-2.3-6.142-7.061,0-4.707,3.309-7.034,5.975-7.034C150.668,263.981,153.93,266.309,153.93,270.989Zm-10.4-.635h8.928c-.238-3.385-2.5-4.919-4.476-4.919C146.026,265.435,143.74,266.97,143.525,270.354Z" data-name="Path 1153" transform="translate(-119.333 -259.141)"/><path id="Path_1154" fill="#131313" d="M169.179,277.013h-1.5V258.5h1.5Z" data-name="Path 1154" transform="translate(-123.448 -258.263)"/><path id="Path_1155" fill="#131313" d="M184.865,271.015c0,4.76-3.356,7.061-6,7.061s-6-2.3-6-7.061c0-4.707,3.357-7.034,6-7.034S184.865,266.309,184.865,271.015Zm-10.523,0c0,3.834,2.5,5.607,4.524,5.607s4.523-1.773,4.523-5.607c0-3.808-2.5-5.58-4.523-5.58S174.342,267.207,174.342,271.015Z" data-name="Path 1155" transform="translate(-124.279 -259.141)"/><path id="Path_1156" fill="#131313" d="M201.989,271.015c0,4.76-3.356,7.061-6,7.061s-6-2.3-6-7.061c0-4.707,3.357-7.034,6-7.034S201.989,266.309,201.989,271.015Zm-10.523,0c0,3.834,2.5,5.607,4.524,5.607s4.523-1.773,4.523-5.607c0-3.808-2.5-5.58-4.523-5.58S191.466,267.207,191.466,271.015Z" data-name="Path 1156" transform="translate(-127.024 -259.141)"/><path id="Path_1157" fill="#131313" d="M211.084,270.692l-1.928,2.249v4.072h-1.475V258.5h1.475v12.351l6.523-7.59h1.857l-5.5,6.347,6.641,7.4H216.87Z" data-name="Path 1157" transform="translate(-129.859 -258.263)"/><path id="Path_1158" fill="#131313" d="M244.259,271.015c0,4.76-3.356,7.061-6,7.061s-6-2.3-6-7.061c0-4.707,3.357-7.034,6-7.034S244.259,266.309,244.259,271.015Zm-10.523,0c0,3.834,2.5,5.607,4.523,5.607s4.524-1.773,4.524-5.607c0-3.808-2.5-5.58-4.524-5.58S233.736,267.207,233.736,271.015Z" data-name="Path 1158" transform="translate(-133.798 -259.141)"/><path id="Path_1159" fill="#131313" d="M251.53,262.448v.768h3.761v1.375H251.53v12.377h-1.476V264.591h-1.238v-1.375h1.238v-.793c0-3.439,1.929-4.205,3.619-4.205a4.467,4.467,0,0,1,2.5.767L255.6,260.2a3.468,3.468,0,0,0-1.9-.556C252.363,259.645,251.53,260.359,251.53,262.448Z" data-name="Path 1159" transform="translate(-136.452 -258.217)"/><path id="Path_1160" fill="#131313" d="M282.315,277.921h-.047l-4.31-10.6-4.31,10.6H273.6l-4.856-13.751h1.476l3.571,10.314,4.142-10.314h.048l4.142,10.314L285.7,264.17h1.475Z" data-name="Path 1160" transform="translate(-139.646 -259.171)"/><path id="Path_1161" fill="#131313" d="M304.076,271.015c0,4.76-3.356,7.061-6,7.061s-6-2.3-6-7.061c0-4.707,3.357-7.034,6-7.034S304.076,266.309,304.076,271.015Zm-10.523,0c0,3.834,2.5,5.607,4.524,5.607s4.523-1.773,4.523-5.607c0-3.808-2.5-5.58-4.523-5.58S293.553,267.207,293.553,271.015Z" data-name="Path 1161" transform="translate(-143.385 -259.141)"/><path id="Path_1162" fill="#131313" d="M321.2,271.015c0,4.76-3.356,7.061-6,7.061s-6-2.3-6-7.061c0-4.707,3.357-7.034,6-7.034S321.2,266.309,321.2,271.015Zm-10.523,0c0,3.834,2.5,5.607,4.524,5.607s4.523-1.773,4.523-5.607c0-3.808-2.5-5.58-4.523-5.58S310.676,267.207,310.676,271.015Z" data-name="Path 1162" transform="translate(-146.129 -259.141)"/><path id="Path_1163" fill="#131313" d="M338.109,258.5v18.512h-1.476v-2.936a4.939,4.939,0,0,1-4.571,3.121c-2.667,0-5.881-2.275-5.881-7.035,0-4.786,3.237-7.06,5.881-7.06a4.874,4.874,0,0,1,4.571,3.094v-7.7Zm-1.4,11.662c0-3.914-2.452-5.606-4.5-5.606s-4.547,1.772-4.547,5.606c0,3.808,2.5,5.581,4.547,5.581S336.7,274.051,336.7,270.163Z" data-name="Path 1163" transform="translate(-148.851 -258.263)"/><path id="Path_1164" fill="#cb2515" d="M360.576,265.09V274.9c0,.846.333,1.3.976,1.3a3,3,0,0,0,1.571-.476v1.4a3.4,3.4,0,0,1-1.951.5c-1.048,0-2.072-.609-2.072-2.512V265.09h-1.666v-1.375H359.1v-2.38h1.476v2.38h2.595v1.375Z" data-name="Path 1164" transform="translate(-153.86 -258.717)"/><path id="Path_1165" fill="#cb2515" d="M379.382,269v8.013h-1.476V269c0-3.094-1.523-4.416-3.523-4.416-2.334,0-4.072,2.3-4.381,4.178v8.251h-1.476V258.5H370v8.225a5.063,5.063,0,0,1,4.619-3.6C377.049,263.129,379.382,264.768,379.382,269Z" data-name="Path 1165" transform="translate(-155.638 -258.263)"/><path id="Path_1166" fill="#cb2515" d="M396.359,270.989a5.371,5.371,0,0,1-.048.661h-10.38c.19,3.385,2.57,4.972,4.642,4.972a4.289,4.289,0,0,0,3.619-1.719l.9.9a5.285,5.285,0,0,1-4.524,2.275c-2.785,0-6.142-2.3-6.142-7.061,0-4.707,3.309-7.034,5.975-7.034C393.1,263.981,396.359,266.309,396.359,270.989Zm-10.4-.635h8.928c-.238-3.385-2.5-4.919-4.476-4.919C388.454,265.435,386.168,266.97,385.954,270.354Z" data-name="Path 1166" transform="translate(-158.187 -259.141)"/><path id="Path_1167" fill="#cb2515" d="M420.326,270.989a5.359,5.359,0,0,1-.048.661H409.9c.19,3.385,2.57,4.972,4.642,4.972a4.289,4.289,0,0,0,3.618-1.719l.905.9a5.285,5.285,0,0,1-4.524,2.275c-2.785,0-6.143-2.3-6.143-7.061,0-4.707,3.309-7.034,5.976-7.034C417.064,263.981,420.326,266.309,420.326,270.989Zm-10.4-.635h8.928c-.238-3.385-2.5-4.919-4.476-4.919C412.421,265.435,410.136,266.97,409.922,270.354Z" data-name="Path 1167" transform="translate(-162.028 -259.141)"/><path id="Path_1168" fill="#cb2515" d="M435.519,267.075V264.14h1.475v13.751h-1.475v-2.936a4.908,4.908,0,0,1-4.547,3.121c-2.69,0-5.9-2.275-5.9-7.035,0-4.786,3.238-7.06,5.9-7.06A4.866,4.866,0,0,1,435.519,267.075Zm-8.976,3.966c0,3.808,2.523,5.581,4.547,5.581,2.072,0,4.5-1.693,4.5-5.581,0-3.914-2.428-5.606-4.5-5.606C429.067,265.435,426.543,267.207,426.543,271.041Z" data-name="Path 1168" transform="translate(-164.7 -259.141)"/><path id="Path_1169" fill="#cb2515" d="M446.676,265.408a2.046,2.046,0,0,0-2.285,2.01c0,1.058.523,1.8,2,2.354l1.143.45c2.19.872,3.714,1.665,3.714,4.02,0,2.539-2.286,3.834-4.4,3.834a4.63,4.63,0,0,1-4.6-3.491l1.262-.423a3.35,3.35,0,0,0,3.333,2.46c1.476,0,2.88-.767,2.88-2.407,0-1.4-.9-2.062-2.381-2.645l-1.357-.529c-2.167-.846-3.119-1.931-3.119-3.623a3.526,3.526,0,0,1,3.809-3.438,4.1,4.1,0,0,1,3.953,2.8l-1.262.449A2.794,2.794,0,0,0,446.676,265.408Z" data-name="Path 1169" transform="translate(-167.453 -259.141)"/><path id="Path_1170" fill="#cb2515" d="M467.3,270.989a5.383,5.383,0,0,1-.047.661H456.873c.191,3.385,2.571,4.972,4.642,4.972a4.289,4.289,0,0,0,3.619-1.719l.9.9a5.284,5.284,0,0,1-4.524,2.275c-2.785,0-6.142-2.3-6.142-7.061,0-4.707,3.309-7.034,5.976-7.034C464.038,263.981,467.3,266.309,467.3,270.989Zm-10.4-.635h8.928c-.238-3.385-2.5-4.919-4.476-4.919C459.4,265.435,457.11,266.97,456.9,270.354Z" data-name="Path 1170" transform="translate(-169.557 -259.141)"/><path id="Path_1171" fill="#cb2515" d="M492.481,271.015c0,4.76-3.356,7.061-6,7.061s-6-2.3-6-7.061c0-4.707,3.357-7.034,6-7.034S492.481,266.309,492.481,271.015Zm-10.523,0c0,3.834,2.5,5.607,4.524,5.607s4.524-1.773,4.524-5.607c0-3.808-2.5-5.58-4.524-5.58S481.958,267.207,481.958,271.015Z" data-name="Path 1171" transform="translate(-173.581 -259.141)"/><path id="Path_1172" fill="#cb2515" d="M499.753,262.448v.768h3.762v1.375h-3.762v12.377h-1.475V264.591H497.04v-1.375h1.238v-.793c0-3.439,1.929-4.205,3.618-4.205a4.47,4.47,0,0,1,2.5.767l-.571,1.218a3.468,3.468,0,0,0-1.9-.556C500.587,259.645,499.753,260.359,499.753,262.448Z" data-name="Path 1172" transform="translate(-176.235 -258.217)"/><path id="Path_1173" fill="#cb2515" d="M518.61,277.921h-.071l-5.571-13.751h1.523l4.095,10.446,4.072-10.446h1.523Z" data-name="Path 1173" transform="translate(-178.788 -259.171)"/><path id="Path_1174" fill="#cb2515" d="M530.884,277.921h-1.5V264.17h1.5Z" data-name="Path 1174" transform="translate(-181.418 -259.171)"/><path id="Path_1175" fill="#cb2515" d="M546.966,269.883V277.9H545.49v-8.013c0-3.094-1.523-4.416-3.523-4.416-2.334,0-4.072,2.3-4.381,4.178V277.9H536.11V264.145h1.476v3.465a5.062,5.062,0,0,1,4.618-3.6C544.633,264.012,546.966,265.651,546.966,269.883Z" data-name="Path 1175" transform="translate(-182.496 -259.146)"/><path id="Path_1176" fill="#cb2515" d="M562.791,264.17l-6.856,18.777h-1.476l1.977-5.422-5.214-13.355h1.5l4.428,11.4,4.142-11.4Z" data-name="Path 1176" transform="translate(-184.918 -259.171)"/><path id="Path_1177" fill="#cb2515" d="M569.589,277.013h-1.5V258.5h1.5Z" data-name="Path 1177" transform="translate(-187.622 -258.263)"/></g><g id="Group_424" data-name="Group 424" transform="translate(115.637 167.868)"><path id="Path_1178" fill="#131313" d="M147.156,188.624c0,9.787-6.1,17.207-16.1,17.207h-11.07v20.837h-4.227v-55.25h15.3C141.052,171.418,147.156,178.916,147.156,188.624Zm-4.226,0c0-8.129-4.294-12.787-11.875-12.787h-11.07v25.731h11.07C138.636,201.568,142.93,196.753,142.93,188.624Z" data-name="Path 1178" transform="translate(-115.758 -171.418)"/><path id="Path_1179" fill="#131313" d="M183.921,197.007v-8.761h4.159v41.043h-4.159v-8.761a13.867,13.867,0,0,1-12.815,9.314c-7.581,0-16.638-6.788-16.638-21,0-14.286,9.125-21.075,16.638-21.075A13.742,13.742,0,0,1,183.921,197.007Zm-25.294,11.839c0,11.366,7.112,16.654,12.815,16.654,5.836,0,12.68-5.052,12.68-16.654,0-11.682-6.844-16.733-12.68-16.733C165.738,192.113,158.626,197.4,158.626,208.847Z" data-name="Path 1179" transform="translate(-121.962 -174.039)"/><path id="Path_1180" fill="#131313" d="M223.876,188.024v4.5a11.765,11.765,0,0,0-2.416-.158c-6.776.079-12.009,5.447-13.149,15.234V229.3h-4.227V188.262h4.227v12.391c.738-6.472,5.569-12.786,13.217-12.786A22.421,22.421,0,0,1,223.876,188.024Z" data-name="Path 1180" transform="translate(-129.914 -174.054)"/><path id="Path_1181" fill="#131313" d="M260.944,188.246v56.039h-4.16V220.528c-2.281,5.841-7.38,9.314-12.881,9.314-7.514,0-16.571-6.788-16.571-21,0-14.286,9.125-21.075,16.571-21.075a13.759,13.759,0,0,1,12.881,9.235v-8.761Zm-3.959,20.6c0-11.682-6.91-16.733-12.681-16.733s-12.813,5.289-12.813,16.733c0,11.366,7.044,16.654,12.813,16.654S256.985,220.449,256.985,208.847Z" data-name="Path 1181" transform="translate(-133.64 -174.039)"/><path id="Path_1182" fill="#131313" d="M306.151,188.337V229.38h-4.159V219.04c-.672,3.394-4.9,10.893-12.881,10.893-6.844,0-12.882-4.578-12.882-17.129V188.337h4.159V212.8c0,9.235,3.891,12.787,9.527,12.787,6.374,0,10.8-7.024,12.077-13.26V188.337Z" data-name="Path 1182" transform="translate(-141.477 -174.13)"/><path id="Path_1183" fill="#131313" d="M353.147,208.689a16.727,16.727,0,0,1-.134,1.973H323.761c.537,10.1,7.245,14.839,13.082,14.839a11.854,11.854,0,0,0,10.2-5.131l2.549,2.684a14.652,14.652,0,0,1-12.747,6.788c-7.85,0-17.309-6.867-17.309-21.075,0-14.049,9.325-21,16.839-21C343.955,187.772,353.147,194.718,353.147,208.689Zm-29.319-1.894h25.159c-.671-10.1-7.045-14.681-12.614-14.681C330.873,192.113,324.432,196.692,323.828,206.794Z" data-name="Path 1183" transform="translate(-148.417 -174.039)"/><path id="Path_1184" fill="#131313" d="M371.535,191.085v29.283c0,2.526.939,3.868,2.75,3.868a8.1,8.1,0,0,0,4.428-1.422V227a9.19,9.19,0,0,1-5.5,1.5c-2.952,0-5.837-1.815-5.837-7.5V191.085h-4.7v-4.1h4.7v-7.1h4.16v7.1h7.312v4.1Z" data-name="Path 1184" transform="translate(-155.332 -172.774)"/><path id="Path_1185" fill="#131313" d="M510.473,205.389V229.3h-4.16V205.389c0-9.235-4.294-13.181-9.929-13.181-6.575,0-11.472,6.866-12.345,12.471V229.3H479.88V188.262h4.159V198.6c.537-3.157,5.232-10.734,13.016-10.734C503.9,187.867,510.473,192.76,510.473,205.389Z" data-name="Path 1185" transform="translate(-174.116 -174.054)"/><path id="Path_1186" fill="#131313" d="M552.034,188.337l-19.322,56.039h-4.159l5.569-16.181-14.693-39.859h4.226l12.479,34.018,11.674-34.018Z" data-name="Path 1186" transform="translate(-180.454 -174.13)"/><path id="Path_1187" fill="#131313" d="M570.156,226.668H565.93v-55.25h4.226Z" data-name="Path 1187" transform="translate(-187.907 -171.418)"/></g><g id="Group_425" data-name="Group 425" transform="translate(334.734 149.269)"><path id="Path_1188" fill="#cb2515" d="M441.591,226.468h11.634V187.338c0-6.059-2.07-9.8-5.735-12.557,0,0-4.963-4.282-16.362-4.071h0L413.1,210.747l-15.126-36.9h9.014l-.018-3.136h-30.3l.01,3.136,8.575.026,22.67,53.521,24.756-55.411c8.744,2.858,8.908,12,8.908,12v42.485Z" data-name="Path 1188" transform="translate(-376.671 -152.704)"/><path id="Path_1189" fill="#cb2515" d="M457.845,160.574a5.653,5.653,0,1,0-5.654-5.654A5.653,5.653,0,0,0,457.845,160.574Z" data-name="Path 1189" transform="translate(-388.775 -149.269)"/></g></g></svg>