<svg xmlns="http://www.w3.org/2000/svg" id="Group_430" width="15.172" height="15.416" data-name="Group 430" viewBox="0 0 15.172 15.416"><path id="Path_1123" fill="none" d="M20.888,14.5a5.588,5.588,0,1,0,5.588,5.588A5.6,5.6,0,0,0,20.888,14.5Z" data-name="Path 1123" transform="translate(-13.431 -12.65)"/><path id="Path_1124" fill="#131313" d="M17.656,15.654a6.779,6.779,0,1,0-1.593,1.49l.034.034,2.912,2.912a1.121,1.121,0,0,0,.771.325,1.05,1.05,0,0,0,.771-.325,1.086,1.086,0,0,0,0-1.542Zm-5.31.462a4.471,4.471,0,1,1,4.471-4.471A4.474,4.474,0,0,1,12.346,16.117Z" data-name="Path 1124" transform="translate(-5.7 -5)"/></svg>