<svg xmlns="http://www.w3.org/2000/svg" xmlns:xlink="http://www.w3.org/1999/xlink" width="29" height="23" viewBox="0 0 29 23">
  <defs>
    <clipPath id="clip-path">
      <rect id="Rectangle_3554" data-name="Rectangle 3554" width="29" height="23" transform="translate(705 833)" fill="#fff" stroke="#707070" stroke-width="1"/>
    </clipPath>
  </defs>
  <g id="Mask_Group_65" data-name="Mask Group 65" transform="translate(-705 -833)" clip-path="url(#clip-path)">
    <path id="Path_1190" data-name="Path 1190" d="M49.082,992.09a1.636,1.636,0,0,0-.4-1L40.9,982.815a1.672,1.672,0,0,0-2.128-.121,1.52,1.52,0,0,0,.015,2.128l5.473,5.808h-26.8a1.46,1.46,0,0,0,0,2.919h26.8l-5.473,5.808a1.608,1.608,0,0,0-.015,2.128,1.65,1.65,0,0,0,2.128-.122l7.784-8.271A1.4,1.4,0,0,0,49.082,992.09Z" transform="translate(1711.822 822.918) rotate(90)" fill="#fff"/>
  </g>
</svg>
